<?xml version="1.0" encoding="UTF-8"?>
<!DOCTYPE svg PUBLIC "-//W3C//DTD SVG 1.1//EN" "http://www.w3.org/Graphics/SVG/1.1/DTD/svg11.dtd">
<svg xmlns="http://www.w3.org/2000/svg" version="1.1" width="256px" height="256px" style="shape-rendering:geometricPrecision; text-rendering:geometricPrecision; image-rendering:optimizeQuality; fill-rule:evenodd; clip-rule:evenodd" xmlns:xlink="http://www.w3.org/1999/xlink">
<g><path style="opacity:0.998" fill="#7fbdf1" d="M 140.5,19.5 C 117.416,26.1075 94.083,31.1075 70.5,34.5C 79.0045,24.8299 88.3378,15.9966 98.5,8C 101.558,7.54227 104.558,7.8756 107.5,9C 118.435,12.8122 129.435,16.3122 140.5,19.5 Z"/></g>
<g><path style="opacity:0.998" fill="#0b6ab7" d="M 176.5,31.5 C 193.158,50.8236 210.158,69.8236 227.5,88.5C 232.501,93.3103 237.167,98.477 241.5,104C 239.016,110.463 236.683,116.963 234.5,123.5C 226.536,144.889 219.036,166.555 212,188.5C 211.506,190.134 211.34,191.801 211.5,193.5C 209.737,200.383 207.737,207.216 205.5,214C 205.164,215.03 204.497,215.53 203.5,215.5C 201.176,215.995 199.009,215.995 197,215.5C 194.552,215.699 192.719,216.699 191.5,218.5C 189.958,219.301 188.292,219.634 186.5,219.5C 185.85,219.196 185.183,218.863 184.5,218.5C 162.164,223.418 139.831,228.418 117.5,233.5C 115.667,233.585 114.334,234.252 113.5,235.5C 105.19,238.2 96.8567,239.2 88.5,238.5C 86.5472,234.88 83.8805,231.88 80.5,229.5C 72.8185,219.99 64.9852,210.656 57,201.5C 53.607,199.773 51.2736,197.106 50,193.5C 36.9357,179.699 24.1024,165.699 11.5,151.5C 12.83,143.511 15.1634,135.845 18.5,128.5C 23.2453,113.491 28.412,98.4908 34,83.5C 35.9508,76.4893 37.7841,69.4893 39.5,62.5C 42.1207,54.9241 44.454,47.2574 46.5,39.5C 54.3447,37.1917 62.3447,35.525 70.5,34.5C 94.083,31.1075 117.416,26.1075 140.5,19.5C 141.416,19.9817 142.416,20.315 143.5,20.5C 148.324,19.2784 152.991,17.9451 157.5,16.5C 159.694,15.2335 162.028,15.2335 164.5,16.5C 166.992,20.4913 170.158,23.8247 174,26.5C 175.094,28.0779 175.928,29.7446 176.5,31.5 Z M 138.5,58.5 C 147.221,58.1956 155.888,58.5289 164.5,59.5C 177.042,81.6497 190.042,103.483 203.5,125C 191.455,147.753 179.121,170.419 166.5,193C 143.664,193.793 120.831,194.626 98,195.5C 95.1667,195.167 92.3333,194.833 89.5,194.5C 76.1322,172.996 62.7989,150.996 49.5,128.5C 61.6326,105.873 73.9659,83.3732 86.5,61C 103.953,59.89 121.286,59.0567 138.5,58.5 Z"/></g>
<g><path style="opacity:0.984" fill="#8cbae9" d="M 157.5,16.5 C 152.991,17.9451 148.324,19.2784 143.5,20.5C 142.416,20.315 141.416,19.9817 140.5,19.5C 145.797,17.1257 151.463,16.1257 157.5,16.5 Z"/></g>
<g><path style="opacity:0.999" fill="#82bff1" d="M 176.5,31.5 C 190.114,34.4816 203.447,38.4816 216.5,43.5C 220.026,58.604 223.693,73.604 227.5,88.5C 210.158,69.8236 193.158,50.8236 176.5,31.5 Z"/></g>
<g><path style="opacity:0.991" fill="#01509e" d="M 140.5,34.5 C 152.171,34.3335 163.838,34.5001 175.5,35C 193.449,63.7262 211.283,92.5595 229,121.5C 230.187,123.044 230.52,124.711 230,126.5C 213.437,156.46 197.27,186.626 181.5,217C 146.158,217.461 110.824,217.794 75.5,218C 57.5333,188.021 39.5333,158.021 21.5,128C 38.0653,97.6962 54.732,67.5295 71.5,37.5C 94.6447,36.189 117.645,35.189 140.5,34.5 Z M 138.5,58.5 C 121.286,59.0567 103.953,59.89 86.5,61C 73.9659,83.3732 61.6326,105.873 49.5,128.5C 62.7989,150.996 76.1322,172.996 89.5,194.5C 92.3333,194.833 95.1667,195.167 98,195.5C 120.831,194.626 143.664,193.793 166.5,193C 179.121,170.419 191.455,147.753 203.5,125C 190.042,103.483 177.042,81.6497 164.5,59.5C 155.888,58.5289 147.221,58.1956 138.5,58.5 Z"/></g>
<g><path style="opacity:1" fill="#7ebdf0" d="M 39.5,62.5 C 37.7841,69.4893 35.9508,76.4893 34,83.5C 28.412,98.4908 23.2453,113.491 18.5,128.5C 14.5795,115.81 12.0795,102.81 11,89.5C 20.67,80.5995 30.17,71.5995 39.5,62.5 Z"/></g>
<g><path style="opacity:0.978" fill="#1b73a8" d="M 136.5,81.5 C 137.833,81.5 139.167,81.5 140.5,81.5C 141.816,85.6305 143.816,89.4639 146.5,93C 142.802,94.4121 138.969,95.5787 135,96.5C 133.893,96.4148 132.893,96.0814 132,95.5C 129.966,92.2936 128.133,88.9603 126.5,85.5C 130.138,84.6725 133.471,83.3392 136.5,81.5 Z"/></g>
<g><path style="opacity:0.982" fill="#0f70a7" d="M 140.5,126.5 C 140.723,129.114 139.556,130.781 137,131.5C 135.141,134.564 133.308,137.564 131.5,140.5C 125.919,131.657 120.419,122.657 115,113.5C 109.973,122.383 104.806,131.217 99.5,140C 107.493,140.5 115.493,140.666 123.5,140.5C 125.452,145.061 127.952,149.395 131,153.5C 131.494,155.134 131.66,156.801 131.5,158.5C 111.822,158.024 92.1551,157.357 72.5,156.5C 86.085,131.348 100.252,106.348 115,81.5C 122.667,94.1667 130.333,106.833 138,119.5C 139.411,121.65 140.245,123.984 140.5,126.5 Z"/></g>
<g><path style="opacity:0.985" fill="#1374a7" d="M 144.5,95.5 C 145.833,95.5 147.167,95.5 148.5,95.5C 148.491,97.3084 148.991,98.9751 150,100.5C 157.19,112.048 164.023,123.881 170.5,136C 165.5,136.667 160.5,136.667 155.5,136C 155,135.5 154.5,135 154,134.5C 147.699,123.52 141.366,112.52 135,101.5C 134.251,100.365 134.417,99.365 135.5,98.5C 138.662,97.635 141.662,96.635 144.5,95.5 Z"/></g>
<g><path style="opacity:0.998" fill="#82bff1" d="M 234.5,123.5 C 236.931,134.149 239.431,144.816 242,155.5C 242.667,158.833 242.667,162.167 242,165.5C 231.363,174.303 221.197,183.636 211.5,193.5C 211.34,191.801 211.506,190.134 212,188.5C 219.036,166.555 226.536,144.889 234.5,123.5 Z"/></g>
<g><path style="opacity:0.989" fill="#1177a7" d="M 140.5,126.5 C 144.114,130.882 147.114,135.716 149.5,141C 157.827,141.5 166.16,141.666 174.5,141.5C 177.423,147.015 180.09,152.682 182.5,158.5C 168.484,158.833 154.484,158.499 140.5,157.5C 136.69,152.212 133.69,146.545 131.5,140.5C 133.308,137.564 135.141,134.564 137,131.5C 139.556,130.781 140.723,129.114 140.5,126.5 Z"/></g>
<g><path style="opacity:0.998" fill="#83c0f1" d="M 11.5,151.5 C 24.1024,165.699 36.9357,179.699 50,193.5C 51.2736,197.106 53.607,199.773 57,201.5C 64.9852,210.656 72.8185,219.99 80.5,229.5C 79.7611,229.631 79.0944,229.464 78.5,229C 76.8745,226.372 74.8745,224.039 72.5,222C 60.493,218.573 48.6596,214.74 37,210.5C 32.9843,197.759 29.9843,184.759 28,171.5C 23,166.167 18,160.833 13,155.5C 12.2086,154.255 11.7086,152.922 11.5,151.5 Z"/></g>
<g><path style="opacity:0.22" fill="#a8d4f2" d="M 203.5,215.5 C 199.837,217.416 195.837,218.416 191.5,218.5C 192.719,216.699 194.552,215.699 197,215.5C 199.009,215.995 201.176,215.995 203.5,215.5 Z"/></g>
<g><path style="opacity:1" fill="#84c1f2" d="M 186.5,219.5 C 184.611,220.322 182.611,221.155 180.5,222C 171.81,229.691 163.477,237.691 155.5,246C 147.105,245.901 139.105,243.901 131.5,240C 125.404,238.8 119.404,237.3 113.5,235.5C 114.334,234.252 115.667,233.585 117.5,233.5C 139.831,228.418 162.164,223.418 184.5,218.5C 185.183,218.863 185.85,219.196 186.5,219.5 Z"/></g>
<g><path style="opacity:0.216" fill="#95d1f2" d="M 80.5,229.5 C 83.8805,231.88 86.5472,234.88 88.5,238.5C 87.5041,238.586 86.6708,238.252 86,237.5C 83.9205,234.935 82.0872,232.268 80.5,229.5 Z"/></g>
</svg>
